<svg xmlns="http://www.w3.org/2000/svg" viewBox="0 0 24 24" fill="currentColor"><path d="M13.7 15.6c-2.4 1.8-6.1 1.7-8.3-0.5 -0.4-0.4-0.3-1 0.2-1.4 0.4-0.3 1-0.2 1.4 0.2 1.5 1.5 4.3 1.5 5.9 0.2 0.3-0.2 0.8-0.2 1.1 0.1C14.2 14.6 14.1 15.2 13.7 15.6zM20.9 16.7c0.2 0.4 0 1-0.4 1.2 -0.8 0.5-1.7 0.9-2.7 1.2 -4.3 1.1-8.5-0.1-11.9-2.3 -0.4-0.2-0.5-0.7-0.2-1.1 0.2-0.4 0.7-0.5 1.1-0.2 3.1 1.9 6.8 3 10.7 2.1 0.7-0.2 1.4-0.5 2-0.8 0.1 0 0.1-0.1 0.2-0.1C20.2 16.4 20.7 16.4 20.9 16.7zM16.1 12.1c0.1-1.6-0.8-2.6-2.2-3.2 -0.3-0.1-0.7-0.2-1.1-0.2 -1.5 0-2.8 0.8-3.3 2 -0.4 1.1-0.2 2.3 0.5 3.1 0.1 0.1 0.1 0.2 0.1 0.3 0 0.2-0.1 0.3-0.3 0.3 -0.5 0.1-0.9 0.2-1.3 0.2 -0.4 0-0.7-0.4-0.8-0.7 -0.7-1.7 0-3.8 1.8-5 1.1-0.7 2.4-1.1 3.8-1 1.6 0.1 2.9 0.8 3.8 2 0.3-0.6 0.5-1.3 0.5-1.9 0-1.2-0.7-2.1-1.9-2.2 -0.7-0.1-1.5 0.2-2.1 0.7 -0.2 0.2-0.6 0.2-0.8-0.1 -0.2-0.3-0.2-0.7 0.1-1 0.9-0.8 2-1.1 3.2-1 1.8 0.2 2.9 1.5 2.9 3.4 0 0.8-0.2 1.6-0.6 2.3 0.6 1.1 0.8 2.5 0.5 3.8 -0.1 0.3-0.4 0.5-0.7 0.4C16.5 12.6 16.2 12.3 16.1 12.1z"/></svg>
