<svg xmlns="http://www.w3.org/2000/svg" viewBox="0 0 24 24" fill="currentColor"><path d="M18.7 12.4c-0.3 2.1 1.2 3.6 1.3 3.7 -0.1 0.2-2 6.9-6.6 6.9 -1.7 0-2.3-1-4.3-1 -2.1 0-2.7 1-4.2 1 -3.3 0-7.7-6-7.7-11.5 0-6.1 3.8-9.4 7.6-9.4 1.9 0 3.3 1.1 4.3 1.1 0.9 0 2.8-1.5 5-1.1 0.7 0.1 2.9 0.5 4.3 2.5 -0.1 0.1-2.5 1.5-2.5 4.8 0 0.5 0.1 1.3 0.3 1.6 0.1 0.2 0.3 0.4 0.4 0.6 0.4 0.5 0.8 0.6 0.9 0.6 0.1 0 0.3-0.1 0.4-0.1C18.1 10.9 19 11.2 18.7 12.4zM12.9 4.3c0.9-1.1 1.4-2.5 1.3-3.8 -1.2 0.1-2.8 0.9-3.7 2 -0.8 1-1.3 2.5-1.2 3.7C10.5 6.3 12 5.3 12.9 4.3z"/></svg>
